<svg xmlns="http://www.w3.org/2000/svg" width="384" height="384"><g fill="none" stroke="#a9713d" stroke-width="3" stroke-linejoin="round"><path d="M123.273 230.829v105.272M123.273 333.044V230.829M87.974 51.899v152.273M157.188 207.073H90.936l-2.962-2.901"/><path d="M90.936 207.073l-2.962-2.901V83.231"/><path d="M87.974 51.899H62.38l-.45.28-.37.387-.268.47V317.41l6.235 6.039 7.183 6.957 2.643 2.56 3.237 3.135h42.682v-3.057M301.377 227.466l3.074 3.363V336.101H331.458M333.27 317.41V53.167l-.298-.524-.394-.413-.02-.019"/><path d="M301.375 53.228h-40l-10-.001h-75.476l-10-.001H123.13l-10 .001h-10l-10 .001H87.974M332.559 52.211l-.501-.312H304.45v1.329M332.972 52.643l.299.524v281.039l-.447.784-.617.644-.75.467M304.45 80.53V204.172l-3.073 2.901h-65.424M87.974 53.228v-1.329M301.375 53.228h3.076M67.692 64.628H80.59v10.947H67.692M304.45 53.228V80.53M67.692 75.575V64.628M310.948 75.575V64.628H323.924"/><path d="M323.924 64.628v10.947H310.948V64.628M332.972 52.643l-.394-.413-.02-.019-.5-.312M333.27 317.41V334.206l-.446.783-.576.603-.041.042M332.207 335.634l-.75.467"/><path d="M332.972 52.643l-.01-.01-.403-.422-.501-.312M331.458 336.101l.749-.467.04-.042.577-.603.447-.783V317.41M123.505 230.613l-.232.216.232-.216 3.38-3.147H256.96M235.953 207.073h-12.247M332.559 52.211l.404.422M100.727 197.927h56.46M293.837 197.927l2.03-.051 1.978-.302 1.707-.727M299.552 196.847l1.099-1.131.456-1.309.077-1.342M301.184 193.065V65.272M301.184 65.272l-.077-1.344-.457-1.309-1.098-1.13M299.552 61.489l-1.71-.727-1.976-.301-2.03-.051"/><path d="M293.837 60.41h-193.11l-2.03.051-1.978.302-1.707.726M95.012 61.489l-1.1 1.131-.455 1.309-.077 1.343M93.38 193.065l.077 1.343.457 1.309 1.098 1.13M95.012 196.847l1.709.727 1.977.302 2.029.051M175.164 242.176v78.996l-.375 1.491-.542 1.03M174.247 323.693H145.52l-.542-1.03-.375-1.491M256.96 227.466l-.064-.035H126.698l-1.89 1.029-1.303 1.491M261.022 335.917V230.686l-1.686-1.925-2.376-1.295"/><path d="M144.894 240.452l.42-.797h28.933l.542 1.03.375 1.491M144.604 241.607l.29-1.155M67.692 75.575V64.628M93.38 65.272v127.793M123.273 333.044v3.057M123.505 229.951V335.917M144.604 321.172v-79.565M123.273 333.044h.232M223.706 207.073h-66.518M123.505 335.917h137.517M235.953 197.927h57.884M157.188 197.927h78.765M256.96 227.466h44.417M261.022 333.452l10 .029 10 .03 10 .03 9.999.029 3.43.01M333.27 317.41v-86.581"/></g></svg>
